<svg width="78" height="78" viewBox="0 0 78 78" fill="none" xmlns="http://www.w3.org/2000/svg">
<path d="M38.9125 0.000171477C37.5123 0.000171477 36.1454 0.511354 35.0925 1.56428L27.8686 8.86517C27.4767 9.26127 26.9991 9.5686 26.6062 9.96377C26.3315 10.2401 26.0996 10.5571 25.8241 10.8326L1.57947 35.0745C0.568014 36.0885 0 37.4623 0 38.8945C0 40.3267 0.568014 41.7005 1.57947 42.7145L35.0925 76.2275C36.1093 77.2336 37.482 77.7979 38.9125 77.7979C40.3429 77.7979 41.7156 77.2336 42.7324 76.2275L76.2455 42.7145C77.2569 41.7005 77.8249 40.3267 77.8249 38.8945C77.8249 37.4623 77.2569 36.0885 76.2455 35.0745L42.7297 1.5615C42.2286 1.0613 41.6331 0.665681 40.9778 0.397644C40.3225 0.129608 39.6204 -0.00550088 38.9125 0.000171477ZM35.744 8.8139C37.4937 7.06268 40.3319 7.06206 42.0823 8.81251L67.7489 34.4791C70.1875 36.9176 70.1875 40.8713 67.7489 43.3099L43.3279 67.7309C40.8893 70.1695 36.9356 70.1695 34.497 67.7309L10.0763 43.3102C7.63761 40.8715 7.63773 36.9176 10.0766 34.4791L25.5762 18.9813C27.2845 17.2732 30.0541 17.2732 31.7623 18.9815L32.4775 19.6966C33.1303 20.3495 33.3401 21.3024 33.3561 22.2255C33.3561 22.9869 33.5101 23.708 33.7889 24.3633C34.659 26.4092 36.1343 28.3688 36.1343 30.5921V47.1969C36.1343 49.4202 34.6584 51.3793 33.7885 53.4253C33.51 54.0803 33.3561 54.8014 33.3561 55.5635C33.3561 57.0371 33.9415 58.4504 34.9835 59.4924C36.0256 60.5344 37.4388 61.1198 38.9125 61.1198C40.3861 61.1198 41.7994 60.5344 42.8414 59.4924C43.8834 58.4504 44.4688 57.0371 44.4688 55.5635C44.4688 54.8021 44.3148 54.081 44.0361 53.4257C43.1659 51.3798 41.6906 49.4202 41.6906 47.1969V38.7264C41.6906 35.1361 46.0312 33.3378 48.5703 35.8761C49.5801 36.8856 49.8655 38.3818 50.0953 39.7911C50.1076 39.8665 50.1214 39.9416 50.1369 40.0165C50.3078 40.8474 50.6669 41.6281 51.1864 42.2987C51.706 42.9692 52.3722 43.5119 53.1341 43.8849C53.896 44.258 54.7332 44.4516 55.5815 44.4508C57.0546 44.4501 58.4672 43.8644 59.5086 42.8224C60.55 41.7805 61.135 40.3676 61.135 38.8945C61.1362 38.046 60.9429 37.2084 60.5701 36.4462C60.1972 35.684 59.6546 35.0174 58.984 34.4975C58.3133 33.9777 57.5325 33.6184 56.7014 33.4473C55.1633 33.1306 53.5079 32.8287 52.3974 31.7182L46.0855 25.4063C44.9753 24.2961 44.6735 22.6412 44.3571 21.1035C44.1861 20.2726 43.8271 19.4919 43.3075 18.8213C42.7879 18.1507 42.1217 17.6081 41.3598 17.235C40.5979 16.862 39.7608 16.6684 38.9125 16.6692C37.9911 16.6536 37.04 16.4441 36.3883 15.7925L35.6708 15.075C33.9626 13.3668 33.962 10.5974 35.6695 8.88847L35.744 8.8139Z" fill="#FF7300"/>
</svg>
