<svg width="86" height="78" viewBox="0 0 86 78" fill="none" xmlns="http://www.w3.org/2000/svg">
<path d="M86 38.9639C86 33.2664 78.8656 27.8663 67.9257 24.5195C70.4519 13.3717 69.3303 4.49937 64.3853 1.65779C63.1871 0.986703 61.831 0.648908 60.458 0.679538V4.58537C61.2642 4.58537 61.9128 4.74662 62.4575 5.04404C64.8404 6.41287 65.876 11.6159 65.0697 18.3131C64.8763 19.9615 64.5609 21.6958 64.1739 23.466C60.5104 22.5832 56.7923 21.9451 53.0441 21.556C50.8111 18.4754 48.375 15.5473 45.752 12.7912C51.4674 7.48071 56.8317 4.57104 60.4795 4.57104V0.661621C55.6563 0.661621 49.3461 4.09804 42.9642 10.0571C36.5858 4.13745 30.272 0.733288 25.4524 0.733288V4.63912C29.0823 4.63912 34.4645 7.53445 40.1799 12.8091C37.7253 15.3891 35.2708 18.3131 32.938 21.556C29.1821 21.9408 25.4573 22.5849 21.7902 23.4839C21.3853 21.7316 21.0879 20.0331 20.8765 18.4027C20.0523 11.7019 21.07 6.49887 23.4386 5.1157C23.9617 4.80037 24.6462 4.65704 25.4524 4.65704V0.751204C23.9832 0.751204 22.6467 1.06654 21.4928 1.72945C16.5658 4.57104 15.4621 13.4219 18.0027 24.5374C7.09858 27.9057 0 33.2843 0 38.9639C0 44.6614 7.13442 50.0615 18.0743 53.4047C15.5481 64.556 16.6697 73.4284 21.6147 76.2664C22.7542 76.9329 24.0872 77.2482 25.5563 77.2482C30.3795 77.2482 36.6898 73.8118 43.0717 67.8527C49.45 73.7759 55.7602 77.1765 60.5834 77.1765C61.9669 77.2058 63.3334 76.8669 64.543 76.1947C69.4701 73.3567 70.5737 64.5059 68.0332 53.3904C78.9014 50.0435 86 44.6435 86 38.9639ZM63.1742 27.2715C62.4933 29.6144 61.7041 31.9246 60.8092 34.1945C59.3442 31.3448 57.7356 28.5714 55.9896 25.8847C58.48 26.2538 60.8808 26.7089 63.1777 27.2715H63.1742ZM55.1475 45.9406C53.7822 48.3056 52.3776 50.5524 50.9227 52.6379C45.6633 53.1014 40.3736 53.1074 35.1131 52.6558C32.0957 48.3457 29.4569 43.7826 27.2262 39.0176C29.4535 34.2414 32.0811 29.6623 35.0808 25.3293C40.339 24.8648 45.6275 24.8576 50.8869 25.3078C52.3418 27.3933 53.7643 29.6221 55.1296 31.9728C56.4626 34.2661 57.6737 36.5953 58.7774 38.946C57.6615 41.3251 56.4506 43.6586 55.1475 45.9406ZM60.8092 43.6616C61.7552 46.0087 62.565 48.3594 63.2279 50.6384C60.9346 51.201 58.5122 51.674 56.0075 52.0395C57.7463 49.3284 59.3488 46.5323 60.8092 43.6616ZM43.0358 62.3666C41.4054 60.6824 39.775 58.8084 38.1625 56.7551C39.7392 56.8268 41.3517 56.8805 42.9821 56.8805C44.6304 56.8805 46.2608 56.8447 47.8554 56.7551C46.2787 58.8084 44.6483 60.6824 43.0358 62.3666ZM29.9925 52.0395C27.5764 51.6894 25.1778 51.2278 22.8043 50.6563C23.4529 48.3952 24.2592 46.0625 25.1693 43.7333C25.8896 45.1308 26.6457 46.5355 27.4698 47.9401C28.294 49.3412 29.1325 50.71 29.9925 52.0395ZM42.9462 15.5611C44.5767 17.2453 46.2071 19.1194 47.8196 21.1726C46.2429 21.101 44.6304 21.0472 43 21.0472C41.3517 21.0472 39.7212 21.083 38.1267 21.1726C39.7033 19.1194 41.3337 17.2453 42.9462 15.5611ZM29.9746 25.8883C28.2362 28.5935 26.6337 31.3836 25.1729 34.2482C24.2528 31.9637 23.4455 29.6353 22.7542 27.2715C25.0475 26.7268 27.4698 26.2538 29.9746 25.8883ZM14.1112 47.8326C7.90483 45.1881 3.8915 41.7159 3.8915 38.9639C3.8915 36.2119 7.90483 32.7217 14.1112 30.0951C15.6162 29.4465 17.2645 28.866 18.9666 28.325C19.9663 31.7578 21.2814 35.334 22.9083 38.9997C21.3723 42.4475 20.0733 45.9961 19.0203 49.6207C17.3557 49.1053 15.7173 48.5085 14.1112 47.8326ZM23.5425 72.8801C21.1596 71.5184 20.124 66.3083 20.9303 59.6146C21.1238 57.9663 21.4391 56.2284 21.8261 54.4582C25.2589 55.3003 29.0107 55.9489 32.9559 56.3717C35.189 59.4523 37.6251 62.3804 40.248 65.1365C34.5326 70.447 29.1683 73.3567 25.5205 73.3567C24.8323 73.3642 24.1529 73.2017 23.5425 72.8837V72.8801ZM65.1235 59.525C65.9477 66.2223 64.93 71.4289 62.5614 72.812C62.0382 73.1274 61.3538 73.2671 60.5476 73.2671C56.9177 73.2671 51.5355 70.3754 45.8201 65.0971C48.2747 62.5243 50.7292 59.5967 53.062 56.3538C56.8179 55.969 60.5427 55.3249 64.2097 54.426C64.6147 56.1961 64.9264 57.8946 65.1235 59.525ZM71.8709 47.8326C70.3659 48.4812 68.7176 49.0617 67.0155 49.6028C65.944 45.9597 64.6271 42.3933 63.0738 38.928C64.6863 35.2838 65.9799 31.7255 66.9617 28.307C68.6997 28.8481 70.3444 29.4465 71.8888 30.0951C78.0952 32.7396 82.1085 36.2119 82.1085 38.9639C82.0906 41.7159 78.0772 45.206 71.8709 47.8326Z" fill="#FF7300"/>
<path d="M42.9813 46.9755C45.1063 46.9755 47.1443 46.1314 48.6469 44.6288C50.1495 43.1262 50.9937 41.0882 50.9937 38.9632C50.9937 36.8382 50.1495 34.8002 48.6469 33.2976C47.1443 31.795 45.1063 30.9509 42.9813 30.9509C40.8563 30.9509 38.8184 31.795 37.3158 33.2976C35.8131 34.8002 34.969 36.8382 34.969 38.9632C34.969 41.0882 35.8131 43.1262 37.3158 44.6288C38.8184 46.1314 40.8563 46.9755 42.9813 46.9755Z" fill="#FF7300"/>
</svg>
