<svg width="90" height="67" viewBox="0 0 90 67" fill="none" xmlns="http://www.w3.org/2000/svg">
<path d="M42.4439 0.97382C38.2018 0.748814 33.4347 1.39983 28.7726 3.01687C21.3625 5.58793 13.3463 9.63202 7.58314 14.9001C0.736981 21.1703 -0.361045 26.6304 0.0889655 28.9105C1.691 37.0107 13.1093 42.2908 17.6814 46.1969C17.4564 46.3169 17.2464 46.4249 17.0484 46.5359C14.7563 47.6489 6.25111 52.023 4.07306 56.7271C1.613 62.0612 4.48107 65.8773 6.36511 66.3993C12.2452 67.9954 18.0594 65.2083 21.2905 60.4952C24.5245 55.7791 24.1345 49.6229 22.6405 46.8149C22.6285 46.7759 22.5985 46.7489 22.5835 46.7069C23.1745 46.3619 23.7775 46.0169 24.3835 45.6689C25.5506 44.9938 26.6906 44.3788 27.6896 43.8388C27.1256 45.3268 26.7176 47.1179 26.5046 49.7009C26.2526 52.725 27.5306 56.6371 29.1896 58.1791C29.9217 58.8542 30.8037 58.8692 31.3497 58.8692C33.2907 58.8692 34.1637 57.3031 35.1298 55.4311C36.3238 53.148 37.3798 50.496 37.3798 50.496C37.3798 50.496 36.0598 57.6691 39.6779 57.6691C40.9979 57.6691 42.3179 56.0071 42.9119 55.1551V55.1671C42.9119 55.1671 42.933 55.1131 43.005 55.0021C43.146 54.7951 43.215 54.6751 43.215 54.6751V54.6331C43.749 53.739 44.922 51.693 46.68 48.3119C48.9571 43.9408 51.1321 38.4807 51.1321 38.4807C51.3421 39.6807 51.6332 40.8627 52.0052 42.0238C52.3982 43.3288 53.2322 44.7598 53.8922 46.1489C53.3582 46.8629 53.0312 47.2739 53.0312 47.2739C53.0312 47.2859 53.0402 47.2979 53.0492 47.3039C52.6262 47.8529 52.1462 48.4439 51.6542 49.0199C49.8541 51.111 47.7151 53.508 47.4361 54.195C47.097 55.0051 47.181 55.6051 47.8261 56.0761C48.3061 56.4331 49.1551 56.4871 50.0371 56.4211C51.1724 56.3628 52.2895 56.1112 53.3402 55.6771C54.3486 55.3262 55.3037 54.8376 56.1783 54.225C57.9363 52.959 59.0073 51.141 58.9083 48.7499C58.8483 47.4299 58.4103 46.1099 57.8763 44.8708C58.0323 44.6518 58.2063 44.4208 58.3563 44.1868C60.1851 41.5228 61.8338 38.7395 63.2914 35.8556C63.5014 37.0557 63.7924 38.2377 64.1614 39.3987C64.5034 40.5117 65.1635 41.7358 65.7695 42.9328C63.1564 45.0088 61.5334 47.4149 60.9694 48.9959C59.9283 51.924 60.7504 53.241 62.2834 53.544C62.9734 53.682 63.9544 53.37 64.6835 53.07C65.7725 52.716 66.7925 52.2 67.7195 51.54C69.4776 50.274 71.1816 48.5039 71.0676 46.0979C71.0256 45.0118 70.7196 43.9228 70.3116 42.8788C72.5196 41.9728 75.3817 41.4778 79.0418 41.8888C86.872 42.7828 88.405 47.5679 88.111 49.5599C87.817 51.555 86.17 52.668 85.6209 52.998C85.0719 53.328 84.9069 53.454 84.9489 53.703C85.0179 54.06 85.2669 54.045 85.7319 53.961C86.38 53.85 89.836 52.341 89.992 48.6389C90.217 43.9678 85.6269 38.8287 77.4877 38.8677H77.4758C74.6527 38.8677 71.8656 39.5007 69.3306 40.7247C68.4995 39.0897 67.6415 37.6587 67.5035 36.5846C67.3355 35.3366 67.1555 34.5956 67.3535 33.1136C67.5485 31.6285 68.4335 29.5225 68.4185 29.3695C68.4035 29.2195 68.2205 28.4635 66.4085 28.4485C64.5965 28.4335 63.0304 28.7905 62.8504 29.2585C62.5294 30.1105 62.2804 30.9865 62.1064 31.8805C61.7824 33.4886 58.4793 39.2397 56.6103 42.2368C55.9923 41.0667 55.4732 40.0377 55.3622 39.2127C55.1942 37.9617 55.0082 37.2207 55.2032 35.7386C55.4012 34.2536 56.2923 32.1475 56.2773 31.9945C56.2623 31.8445 56.0793 31.0885 54.2672 31.0735C52.4552 31.0585 50.8861 31.4155 50.7031 31.8835C50.5231 32.3485 50.3221 33.4466 49.9591 34.5056C49.5931 35.5646 45.195 45.1378 44.043 47.6249C43.5797 48.6274 43.0905 49.6178 42.5759 50.595C42.5189 50.709 42.4799 50.775 42.4559 50.832C42.4949 50.763 42.5249 50.694 42.5249 50.721C42.2159 51.312 42.0329 51.639 42.0329 51.639V51.651C41.7929 52.092 41.5229 52.497 41.3999 52.497C41.3159 52.497 41.1299 51.339 41.4419 49.7579C42.1019 46.4309 43.662 41.2617 43.65 41.0817C43.635 40.9857 43.938 40.0917 42.6179 39.6117C41.3369 39.1587 40.8779 39.9147 40.7669 39.9147C40.6529 39.9147 40.5689 40.1907 40.5689 40.1907C40.5689 40.1907 41.9819 34.3616 37.8388 34.3616C35.2468 34.3616 31.6467 37.1367 29.8797 39.6507C28.7696 40.2417 26.3636 41.5228 23.8315 42.8848L20.9274 44.4508C20.8584 44.3818 20.7984 44.3128 20.7264 44.2438C15.6923 38.9937 6.40111 35.2796 6.79412 28.2234C6.93512 25.6554 7.85314 18.9082 24.6655 10.712C38.4478 4.00389 49.4641 5.84293 51.3601 9.93803C54.0902 15.7822 45.468 26.6604 31.1577 28.2264C25.7036 28.8175 23.1895 26.5134 22.4725 25.7424C21.7285 24.9324 21.6115 24.8874 21.3325 25.0374C20.8644 25.2834 21.1614 26.0004 21.3325 26.4264C21.7525 27.5124 23.6335 29.2135 26.6276 30.1765C29.2586 31.0165 35.2978 31.7215 43.035 28.7965C51.7232 25.5204 58.3593 16.6282 56.3763 8.999C55.1162 4.15389 49.5091 1.34583 42.4439 0.97382ZM37.8298 37.7997C38.0518 37.8147 38.2138 37.8987 38.3068 38.0517C38.7989 38.8647 36.5968 44.8498 36.0328 46.1969C35.1328 48.3569 33.2307 53.859 32.0757 53.568C31.0917 53.322 30.4857 49.1279 31.8777 44.9998C32.5797 42.9238 34.0707 40.4517 34.9588 39.4887C36.0238 38.3217 37.1728 37.7487 37.8298 37.7997ZM67.0505 44.5858C67.2185 45.0658 67.3055 45.5699 67.3175 46.0739C67.3025 49.1699 65.0375 50.322 63.6784 50.802C63.3964 50.61 63.4324 49.962 64.3744 47.9519C64.7405 47.1719 65.5865 45.8519 67.0505 44.5858ZM19.8234 47.9969C20.9904 52.176 19.8654 55.8601 17.1384 58.7672C14.5523 61.5272 10.9222 62.5742 9.36218 61.6952C7.68814 60.7442 8.35116 56.6731 11.5432 53.727C13.4843 51.939 15.9893 50.289 17.6484 49.2719C18.0294 49.0529 18.5724 48.7229 19.2474 48.3239C19.3026 48.2897 19.3597 48.2587 19.4184 48.2309C19.5444 48.1499 19.6824 48.0809 19.8234 47.9969ZM55.1552 48.4769C55.1552 48.5459 55.1732 48.6179 55.1732 48.6989C55.1552 51.159 52.7312 52.821 51.6332 53.481H51.6452V53.487C51.2641 53.679 50.9101 53.799 50.7451 53.703C50.6161 53.634 50.9011 53.373 50.9011 53.373C50.9011 53.373 52.8542 51.321 53.6252 50.385C54.0752 49.8359 54.5942 49.1909 55.1552 48.4769Z" fill="#FF7300"/>
</svg>
