<svg width="36" height="52" viewBox="0 0 36 52" fill="none" xmlns="http://www.w3.org/2000/svg">
<path d="M18.0003 1.6665H9.83366C7.66773 1.6665 5.5905 2.52692 4.05895 4.05847C2.52741 5.59001 1.66699 7.66724 1.66699 9.83317C1.66699 11.9991 2.52741 14.0763 4.05895 15.6079C5.5905 17.1394 7.66773 17.9998 9.83366 17.9998M18.0003 1.6665V17.9998M18.0003 1.6665H26.1669C27.2394 1.6665 28.3014 1.87774 29.2922 2.28815C30.283 2.69857 31.1833 3.30012 31.9416 4.05847C32.7 4.81681 33.3015 5.7171 33.7119 6.70792C34.1224 7.69875 34.3336 8.76071 34.3336 9.83317C34.3336 10.9056 34.1224 11.9676 33.7119 12.9584C33.3015 13.9492 32.7 14.8495 31.9416 15.6079C31.1833 16.3662 30.283 16.9678 29.2922 17.3782C28.3014 17.7886 27.2394 17.9998 26.1669 17.9998M18.0003 17.9998H9.83366M18.0003 17.9998H26.1669M18.0003 17.9998V34.3332M9.83366 17.9998C7.66773 17.9998 5.5905 18.8603 4.05895 20.3918C2.52741 21.9234 1.66699 24.0006 1.66699 26.1665C1.66699 28.3325 2.52741 30.4097 4.05895 31.9412C5.5905 33.4728 7.66773 34.3332 9.83366 34.3332M26.1669 17.9998C25.0945 17.9998 24.0325 18.2111 23.0417 18.6215C22.0509 19.0319 21.1506 19.6335 20.3922 20.3918C19.6339 21.1502 19.0323 22.0505 18.6219 23.0413C18.2115 24.0321 18.0003 25.0941 18.0003 26.1665C18.0003 27.239 18.2115 28.301 18.6219 29.2918C19.0323 30.2826 19.6339 31.1829 20.3922 31.9412C21.1506 32.6996 22.0509 33.3011 23.0417 33.7116C24.0325 34.122 25.0945 34.3332 26.1669 34.3332C27.2394 34.3332 28.3014 34.122 29.2922 33.7116C30.283 33.3011 31.1833 32.6996 31.9416 31.9412C32.7 31.1829 33.3015 30.2826 33.7119 29.2918C34.1224 28.301 34.3336 27.239 34.3336 26.1665C34.3336 25.0941 34.1224 24.0321 33.7119 23.0413C33.3015 22.0505 32.7 21.1502 31.9416 20.3918C31.1833 19.6335 30.283 19.0319 29.2922 18.6215C28.3014 18.2111 27.2394 17.9998 26.1669 17.9998ZM9.83366 34.3332C7.66773 34.3332 5.5905 35.1936 4.05895 36.7252C2.52741 38.2567 1.66699 40.334 1.66699 42.4999C1.66699 44.6658 2.52741 46.7431 4.05895 48.2746C5.5905 49.8062 7.66773 50.6666 9.83366 50.6666C11.9996 50.6666 14.0768 49.8062 15.6084 48.2746C17.1399 46.7431 18.0003 44.6658 18.0003 42.4999V34.3332M9.83366 34.3332H18.0003" stroke="#FF7300" stroke-width="2" stroke-linecap="round" stroke-linejoin="round"/>
</svg>
