<svg width="116" height="19" viewBox="0 0 116 19" fill="none" xmlns="http://www.w3.org/2000/svg">
<path d="M0.867898 11.2486V9.20312L10.5838 4.71449V7.2358L3.6804 10.1974L3.75852 10.0625V10.3892L3.6804 10.2543L10.5838 13.2159V15.7372L0.867898 11.2486ZM19.7156 0.772726L15.0281 18.1875H12.7766L17.4641 0.772726H19.7156ZM115.916 11.2486L106.2 15.7372V13.2159L113.103 10.2543L113.025 10.3892V10.0625L113.103 10.1974L106.2 7.2358V4.71449L115.916 9.20312V11.2486Z" fill="white"/>
<path d="M21.2994 16V1.45455H27.038C28.1412 1.45455 29.0811 1.66525 29.8576 2.08665C30.6341 2.50331 31.226 3.08333 31.6332 3.8267C32.0451 4.56534 32.2511 5.41761 32.2511 6.38352C32.2511 7.34943 32.0427 8.2017 31.6261 8.94034C31.2094 9.67898 30.6057 10.2543 29.815 10.6662C29.029 11.0781 28.0773 11.2841 26.9599 11.2841H23.3022V8.8196H26.4627C27.0546 8.8196 27.5423 8.7178 27.9258 8.5142C28.314 8.30587 28.6029 8.01941 28.7923 7.65483C28.9864 7.28551 29.0835 6.86174 29.0835 6.38352C29.0835 5.90057 28.9864 5.47917 28.7923 5.11932C28.6029 4.75473 28.314 4.47301 27.9258 4.27415C27.5375 4.07055 27.0451 3.96875 26.4485 3.96875H24.3746V16H21.2994ZM38.945 16.2131C37.8417 16.2131 36.8877 15.9787 36.0827 15.5099C35.2826 15.0365 34.6647 14.3783 34.229 13.5355C33.7934 12.688 33.5756 11.7055 33.5756 10.5881C33.5756 9.46117 33.7934 8.47633 34.229 7.63352C34.6647 6.78598 35.2826 6.12784 36.0827 5.65909C36.8877 5.18561 37.8417 4.94886 38.945 4.94886C40.0482 4.94886 40.9999 5.18561 41.8001 5.65909C42.605 6.12784 43.2253 6.78598 43.6609 7.63352C44.0965 8.47633 44.3143 9.46117 44.3143 10.5881C44.3143 11.7055 44.0965 12.688 43.6609 13.5355C43.2253 14.3783 42.605 15.0365 41.8001 15.5099C40.9999 15.9787 40.0482 16.2131 38.945 16.2131ZM38.9592 13.8693C39.4611 13.8693 39.8801 13.7273 40.2163 13.4432C40.5524 13.1544 40.8058 12.7614 40.9762 12.2642C41.1514 11.767 41.239 11.2012 41.239 10.5668C41.239 9.93229 41.1514 9.36648 40.9762 8.86932C40.8058 8.37216 40.5524 7.97917 40.2163 7.69034C39.8801 7.40151 39.4611 7.2571 38.9592 7.2571C38.4525 7.2571 38.0264 7.40151 37.6808 7.69034C37.3398 7.97917 37.0818 8.37216 36.9066 8.86932C36.7362 9.36648 36.6509 9.93229 36.6509 10.5668C36.6509 11.2012 36.7362 11.767 36.9066 12.2642C37.0818 12.7614 37.3398 13.1544 37.6808 13.4432C38.0264 13.7273 38.4525 13.8693 38.9592 13.8693ZM46.2816 16V5.09091H49.2148V6.99432H49.3285C49.5273 6.31723 49.8612 5.80587 50.3299 5.46023C50.7987 5.10985 51.3384 4.93466 51.9492 4.93466C52.1007 4.93466 52.2641 4.94413 52.4393 4.96307C52.6145 4.98201 52.7683 5.00805 52.9009 5.04119V7.72585C52.7589 7.68324 52.5624 7.64536 52.3114 7.61222C52.0605 7.57907 51.8308 7.5625 51.6225 7.5625C51.1774 7.5625 50.7797 7.65956 50.4293 7.85369C50.0837 8.04309 49.8091 8.30824 49.6055 8.64915C49.4066 8.99006 49.3072 9.38305 49.3072 9.82812V16H46.2816ZM60.8146 5.09091V7.36364H54.245V5.09091H60.8146ZM55.7365 2.47727H58.7621V12.6477C58.7621 12.9271 58.8047 13.1449 58.8899 13.3011C58.9751 13.4527 59.0935 13.5592 59.245 13.6207C59.4013 13.6823 59.5812 13.7131 59.7848 13.7131C59.9268 13.7131 60.0689 13.7012 60.2109 13.6776C60.353 13.6491 60.4619 13.6278 60.5376 13.6136L61.0135 15.8651C60.862 15.9124 60.6489 15.9669 60.3743 16.0284C60.0997 16.0947 59.7659 16.1349 59.3729 16.1491C58.6437 16.1776 58.0045 16.0805 57.4553 15.858C56.9107 15.6354 56.487 15.2898 56.1839 14.821C55.8809 14.3523 55.7318 13.7604 55.7365 13.0455V2.47727ZM68.652 5.09091V7.36364H61.919V5.09091H68.652ZM63.4602 16V4.30256C63.4602 3.51184 63.6141 2.85606 63.9219 2.33523C64.2344 1.81439 64.6605 1.42377 65.2003 1.16335C65.7401 0.902935 66.3532 0.772726 67.0398 0.772726C67.5038 0.772726 67.9276 0.808238 68.3111 0.879261C68.6993 0.950284 68.9882 1.0142 69.1776 1.07102L68.6378 3.34375C68.5194 3.30587 68.3726 3.27036 68.1974 3.23722C68.027 3.20407 67.8518 3.1875 67.6719 3.1875C67.2268 3.1875 66.9167 3.29167 66.7415 3.5C66.5663 3.7036 66.4787 3.99006 66.4787 4.35938V16H63.4602ZM75.0387 16.2131C73.9355 16.2131 72.9814 15.9787 72.1765 15.5099C71.3763 15.0365 70.7584 14.3783 70.3228 13.5355C69.8872 12.688 69.6694 11.7055 69.6694 10.5881C69.6694 9.46117 69.8872 8.47633 70.3228 7.63352C70.7584 6.78598 71.3763 6.12784 72.1765 5.65909C72.9814 5.18561 73.9355 4.94886 75.0387 4.94886C76.1419 4.94886 77.0936 5.18561 77.8938 5.65909C78.6987 6.12784 79.319 6.78598 79.7546 7.63352C80.1902 8.47633 80.408 9.46117 80.408 10.5881C80.408 11.7055 80.1902 12.688 79.7546 13.5355C79.319 14.3783 78.6987 15.0365 77.8938 15.5099C77.0936 15.9787 76.1419 16.2131 75.0387 16.2131ZM75.0529 13.8693C75.5548 13.8693 75.9738 13.7273 76.31 13.4432C76.6462 13.1544 76.8995 12.7614 77.07 12.2642C77.2451 11.767 77.3327 11.2012 77.3327 10.5668C77.3327 9.93229 77.2451 9.36648 77.07 8.86932C76.8995 8.37216 76.6462 7.97917 76.31 7.69034C75.9738 7.40151 75.5548 7.2571 75.0529 7.2571C74.5463 7.2571 74.1201 7.40151 73.7745 7.69034C73.4336 7.97917 73.1755 8.37216 73.0004 8.86932C72.8299 9.36648 72.7447 9.93229 72.7447 10.5668C72.7447 11.2012 72.8299 11.767 73.0004 12.2642C73.1755 12.7614 73.4336 13.1544 73.7745 13.4432C74.1201 13.7273 74.5463 13.8693 75.0529 13.8693ZM73.9521 3.68466L75.4577 0.453125H78.256L76.0898 3.68466H73.9521ZM85.4009 1.45455V16H82.3754V1.45455H85.4009ZM87.8246 16V5.09091H90.8501V16H87.8246ZM89.3445 3.68466C88.8946 3.68466 88.5088 3.53551 88.1868 3.23722C87.8696 2.93419 87.7109 2.57197 87.7109 2.15057C87.7109 1.7339 87.8696 1.37642 88.1868 1.07812C88.5088 0.775094 88.8946 0.623579 89.3445 0.623579C89.7943 0.623579 90.1778 0.775094 90.495 1.07812C90.817 1.37642 90.978 1.7339 90.978 2.15057C90.978 2.57197 90.817 2.93419 90.495 3.23722C90.1778 3.53551 89.7943 3.68466 89.3445 3.68466ZM98.2028 16.2131C97.0996 16.2131 96.1455 15.9787 95.3406 15.5099C94.5404 15.0365 93.9225 14.3783 93.4869 13.5355C93.0513 12.688 92.8335 11.7055 92.8335 10.5881C92.8335 9.46117 93.0513 8.47633 93.4869 7.63352C93.9225 6.78598 94.5404 6.12784 95.3406 5.65909C96.1455 5.18561 97.0996 4.94886 98.2028 4.94886C99.306 4.94886 100.258 5.18561 101.058 5.65909C101.863 6.12784 102.483 6.78598 102.919 7.63352C103.354 8.47633 103.572 9.46117 103.572 10.5881C103.572 11.7055 103.354 12.688 102.919 13.5355C102.483 14.3783 101.863 15.0365 101.058 15.5099C100.258 15.9787 99.306 16.2131 98.2028 16.2131ZM98.217 13.8693C98.7189 13.8693 99.1379 13.7273 99.4741 13.4432C99.8103 13.1544 100.064 12.7614 100.234 12.2642C100.409 11.767 100.497 11.2012 100.497 10.5668C100.497 9.93229 100.409 9.36648 100.234 8.86932C100.064 8.37216 99.8103 7.97917 99.4741 7.69034C99.1379 7.40151 98.7189 7.2571 98.217 7.2571C97.7103 7.2571 97.2842 7.40151 96.9386 7.69034C96.5977 7.97917 96.3396 8.37216 96.1644 8.86932C95.994 9.36648 95.9087 9.93229 95.9087 10.5668C95.9087 11.2012 95.994 11.767 96.1644 12.2642C96.3396 12.7614 96.5977 13.1544 96.9386 13.4432C97.2842 13.7273 97.7103 13.8693 98.217 13.8693Z" fill="#FF7300"/>
</svg>
