<svg width="109" height="109" viewBox="0 0 109 109" fill="none" xmlns="http://www.w3.org/2000/svg">
<path d="M102.761 102.761C112.859 92.6633 99.4659 62.8983 72.8473 36.2793C46.2283 9.66042 16.4634 -3.73248 6.36542 6.36542C-3.73248 16.4634 9.66042 46.2283 36.2794 72.8473C62.8983 99.4663 92.6629 112.859 102.761 102.761Z" stroke="white" stroke-width="5" stroke-linecap="round" stroke-linejoin="round"/>
<path d="M72.8473 72.8473C99.4659 46.2283 112.859 16.4634 102.761 6.36542C92.6629 -3.73248 62.8983 9.66042 36.2794 36.2794C9.66042 62.8983 -3.73248 92.6633 6.36542 102.761C16.4634 112.859 46.2283 99.4663 72.8473 72.8473Z" stroke="white" stroke-width="5" stroke-linecap="round" stroke-linejoin="round"/>
<path d="M48.3145 39.5635H60.8145" stroke="white" stroke-width="4" stroke-linecap="round" stroke-linejoin="round"/>
<path d="M58.3129 39.5635V50.0541L68.1332 66.4198C68.2471 66.6093 68.3087 66.8257 68.3116 67.0469C68.3145 67.268 68.2588 67.486 68.1499 67.6785C68.0411 67.8711 67.8831 68.0313 67.6922 68.1429C67.5012 68.2544 67.284 68.3133 67.0629 68.3135H42.0629C41.8416 68.3136 41.6242 68.2549 41.433 68.1434C41.2419 68.032 41.0837 67.8718 40.9747 67.6792C40.8657 67.4866 40.8097 67.2686 40.8126 67.0473C40.8155 66.826 40.877 66.6094 40.991 66.4198L50.8129 50.0541V39.5635" stroke="white" stroke-width="4" stroke-linecap="round" stroke-linejoin="round"/>
<path d="M45.7568 58.4823C47.824 58.0948 50.7568 58.262 54.5646 60.1886C59.6037 62.7401 63.1193 62.2058 65.1115 61.3839" stroke="white" stroke-width="4" stroke-linecap="round" stroke-linejoin="round"/>
</svg>
